<?xml version="1.0" encoding="UTF-8"?>
<svg id="_레이어_2" data-name="레이어 2" xmlns="http://www.w3.org/2000/svg" viewBox="0 0 58.59 38.6">
  <defs>
    <style>
      .cls-1 {
        fill: #fff;
        stroke-width: 0px;
      }
    </style>
  </defs>
  <g id="Layer_1" data-name="Layer 1">
    <g id="_1cPUih.tif" data-name="1cPUih.tif">
      <g>
        <path class="cls-1" d="M50.03,38.6c-.38-.15-.63-.44-.88-.75-.41-.53-.93-.94-1.46-1.33-.23-.17-.46-.35-.67-.55-.29-.27-.38-.61-.33-1,.58-3.98,1.29-7.93,2.05-11.88.75-3.91,1.52-7.82,2.28-11.73.11-.57.24-1.14.33-1.73-.03.06-.07.12-.1.18-2.03,4.18-3.9,8.43-5.7,12.71-1.61,3.84-3.16,7.7-4.6,11.6-.09.23-.19.46-.33.66-.33.47-.8.5-1.21.09-.07-.07-.15-.15-.2-.24-.38-.68-.92-1.22-1.45-1.77-.51-.54-.95-1.12-1.05-1.88-.08-.61-.14-1.23-.17-1.85-.07-1.78,0-3.55.15-5.33.15-1.76.31-3.53.47-5.29.14-1.52.3-3.03.43-4.54.08-.87.12-1.74.18-2.62,0-.07,0-.13-.04-.21-.07.2-.15.41-.21.61-1.54,4.88-3.11,9.75-4.62,14.63-.93,2.99-1.79,6.01-2.7,9.01-.11.36-.31.7-.5,1.03-.08.14-.22.25-.35.34-.3.22-.63.32-.99.15-.36-.17-.53-.49-.54-.87,0-.34.02-.69.11-1.02,1.66-6.24,3.54-12.42,5.54-18.56,1.31-4.04,2.71-8.04,4.07-12.06.14-.42.31-.82.46-1.24.21-.6.6-1.04,1.19-1.28,1.11-.45,2.24-.88,3.37-1.3.37-.14.77-.22,1.18-.14.39.08.63.3.63.7,0,.74,0,1.48-.07,2.21-.16,1.72-.35,3.44-.56,5.15-.2,1.63-.46,3.26-.68,4.89-.22,1.61-.46,3.22-.63,4.83-.19,1.8-.34,3.6-.48,5.41-.07.84-.07,1.69-.05,2.55.03-.06.06-.12.08-.19,1.89-4.88,3.91-9.71,6.13-14.46,1.34-2.86,2.72-5.7,4.09-8.55.17-.35.4-.68.63-.99.29-.41.69-.67,1.18-.83.59-.19,1.17-.43,1.77-.62.57-.18,1.15-.34,1.72-.49.12-.03.26-.02.39,0,.47.06.69.31.72.78.03.61-.14,1.19-.27,1.77-.68,3.14-1.38,6.27-2.05,9.42-.68,3.21-1.33,6.43-1.97,9.64-.72,3.57-1.42,7.14-2.13,10.71-.36,1.84-.72,3.67-1.08,5.51-.06.29-.18.53-.45.68h-.62Z"/>
        <path class="cls-1" d="M13.39,38.6c-.18-.18-.38-.33-.53-.53-.41-.51-.91-.91-1.4-1.34-.29-.26-.56-.55-.81-.85-.26-.31-.33-.67-.21-1.07.64-2.08,1.23-4.18,1.91-6.25.71-2.18,1.5-4.34,2.26-6.51.03-.08.06-.17.1-.29-.37.08-.72.15-1.07.23-1.98.43-3.95.87-5.93,1.3-.15.03-.23.09-.29.24-1.43,3.91-2.87,7.83-4.3,11.74-.15.42-.33.83-.62,1.18-.23.27-.49.49-.84.57-.47.11-.85-.1-1.01-.55-.16-.45-.08-.89.06-1.32.46-1.34.92-2.68,1.4-4.01.87-2.4,1.75-4.79,2.62-7.19.03-.07.05-.14.08-.23-.17-.04-.34-.07-.51-.11-.66-.17-1.16-.59-1.6-1.09-.2-.23-.41-.46-.6-.71-.25-.33-.57-.55-.97-.66-.52-.13-.83-.48-1.05-.95-.18-.39-.12-.67.27-.87.33-.17.68-.31,1.03-.4,1.89-.52,3.79-1.02,5.68-1.52.13-.03.19-.09.24-.22,1.98-4.98,3.97-9.95,5.96-14.93.21-.52.47-1.01.91-1.35.2-.15.43-.29.66-.36.65-.21,1.17.18,1.12.86-.02.34-.12.69-.25,1.01-.93,2.34-1.88,4.67-2.81,7.01-.93,2.34-1.85,4.69-2.78,7.04-.02.06-.04.12-.08.22.45-.1.86-.19,1.28-.27,1.88-.37,3.75-.74,5.63-1.09.17-.03.22-.12.27-.26,1.69-4.33,3.46-8.62,5.31-12.88.25-.58.63-.92,1.27-1.09.84-.21,1.64-.55,2.46-.83.33-.11.66-.2.99-.27.56-.11.92.18.88.75-.03.39-.11.78-.25,1.14-1.1,2.86-2.22,5.72-3.33,8.58-.48,1.24-.97,2.49-1.46,3.73-.03.07-.05.14-.08.23.61-.06,1.18-.13,1.75-.16.39-.02.79-.04,1.17.02.59.1.83.55.67,1.13-.09.33-.23.64-.54.83-.78.49-1.39,1.16-1.87,1.92-.77,1.23-1.89,1.89-3.27,2.18-.15.03-.24.1-.3.26-2.15,5.7-4.21,11.44-6.12,17.22-.11.32-.25.59-.56.76h-.58Z"/>
        <path class="cls-1" d="M25.07,28.59c.18-.16.32-.32.49-.43.22-.14.46-.29.71-.33.38-.07.64.18.69.57.04.37-.06.7-.25,1-.26.41-.54.8-.82,1.19-.07.1-.09.18-.05.3.13.37.28.73.38,1.11.11.4-.05.74-.34.86-.3.13-.67,0-.89-.34-.12-.18-.2-.38-.3-.59-.06.05-.13.1-.2.16-.52.42-1.09.75-1.77.82-1.18.11-2.17-.62-2.41-1.79-.23-1.17.14-2.18.88-3.07.47-.56.97-1.09,1.47-1.63.11-.11.13-.21.09-.36-.14-.49-.29-.98-.38-1.48-.22-1.18.53-2.3,1.68-2.53.93-.19,1.91.29,2.23,1.1.22.54.16,1.09-.12,1.57-.36.61-.75,1.21-1.2,1.75-.31.37-.4.69-.2,1.13.14.3.21.64.33.99ZM23.45,28.33c-.19.25-.36.45-.49.67-.14.23-.27.48-.37.73-.06.15-.09.36.08.45.12.07.33.08.46.02.26-.12.48-.3.72-.47.03-.02.04-.09.03-.12-.13-.41-.27-.82-.43-1.28ZM23.99,25.06c.27-.31.58-.54.71-.92.08-.23.02-.46-.15-.57-.15-.1-.39-.1-.51.03-.1.11-.19.26-.22.41-.06.35.03.69.17,1.05Z"/>
      </g>
    </g>
  </g>
</svg>