<?xml version="1.0" encoding="UTF-8"?>
<svg id="_레이어_2" data-name="레이어 2" xmlns="http://www.w3.org/2000/svg" viewBox="0 0 108.28 17.71">
  <defs>
    <style>
      .cls-1 {
        fill: #fff;
        stroke-width: 0px;
      }
    </style>
  </defs>
  <g id="Layer_1" data-name="Layer 1">
    <g>
      <g id="SVGRepo_iconCarrier" data-name="SVGRepo iconCarrier">
        <path class="cls-1" d="M69.58,1.74c1.43,0,2.76.28,3.98.84,1.22.56,2.18,1.32,2.89,2.28.71.96,1.06,2.01,1.06,3.14s-.35,2.18-1.06,3.14c-.71.96-1.67,1.72-2.88,2.28-1.22.56-2.54.84-3.98.84-.45,0-.92-.03-1.41-.1-2.1,1.46-3.22,2.2-3.35,2.21-.06.02-.13.02-.19,0-.02-.02-.04-.04-.05-.07-.01-.03-.02-.06-.02-.08v-.04c.04-.23.3-1.19.81-2.88-1.14-.57-2.04-1.32-2.71-2.25-.67-.94-1-1.95-1-3.05s.35-2.18,1.06-3.14c.71-.96,1.67-1.72,2.89-2.28,1.22-.56,2.54-.84,3.98-.84Z"/>
      </g>
      <g id="SVGRepo_iconCarrier-2" data-name="SVGRepo iconCarrier">
        <path class="cls-1" d="M32.01.91c-.15,0-.29.06-.41.17s-.18.25-.18.41v15.19c0,.16.06.3.18.41s.25.17.41.17h15.19c.15,0,.29-.06.41-.17s.18-.25.18-.41V1.49c0-.16-.06-.3-.18-.41s-.25-.17-.41-.17h-15.19ZM35.09,5h3.15l2.74,4.09v-4.09h3.15v8.18h-3.15l-2.74-4.09v4.09h-3.15V5Z"/>
      </g>
      <g>
        <path class="cls-1" d="M12.98,17.71H4.68c-.08-.02-.16-.04-.25-.05-2.02-.27-3.44-1.31-4.13-3.26C.15,13.97.1,13.49,0,13.03c0-2.78,0-5.56,0-8.35.01-.07.04-.15.04-.22C.17,2.29,1.89.4,4.03.1,4.47.04,4.91.03,5.34,0c.75,0,1.49,0,2.24,0h1.27c1.39,0,2.78,0,4.17,0,.08.02.16.04.25.05,1.92.15,3.65,1.55,4.18,3.4.12.43.17.89.26,1.34v8.24c-.02.09-.04.18-.05.27-.15,1.93-1.47,3.58-3.32,4.13-.44.13-.91.19-1.36.28ZM8.88,1.67s0-.01,0-.02c-1.16,0-2.32,0-3.48,0-.24,0-.48,0-.71.03-1.24.13-2.21.68-2.73,1.86-.25.56-.32,1.16-.32,1.76,0,1.33,0,2.66,0,3.99,0,1.25-.01,2.51.05,3.76.07,1.4.89,2.44,2.17,2.79.54.15,1.12.21,1.68.22,1.7.03,3.41.02,5.11.01.78,0,1.56.02,2.34-.05,1.3-.11,2.33-.69,2.81-1.96.2-.52.31-1.1.32-1.66.03-2.47.06-4.93,0-7.4-.04-2.07-1.41-3.26-3.17-3.33-1.35-.05-2.71-.01-4.07-.01Z"/>
        <path class="cls-1" d="M8.85,4.26c2.51,0,4.59,2.07,4.58,4.58-.01,2.5-2.06,4.54-4.55,4.55-2.55,0-4.59-2.02-4.59-4.57,0-2.5,2.05-4.55,4.57-4.55ZM5.93,8.81c0,1.61,1.31,2.94,2.92,2.94,1.6,0,2.95-1.34,2.94-2.93,0-1.59-1.32-2.92-2.91-2.93-1.6-.01-2.94,1.31-2.95,2.91Z"/>
        <path class="cls-1" d="M12.57,4.14c0-.57.47-1.04,1.04-1.03.57,0,1.04.48,1.03,1.04,0,.56-.48,1.04-1.04,1.03-.57,0-1.03-.48-1.03-1.04Z"/>
      </g>
      <path class="cls-1" d="M104.1.89h-8.15c-2.31,0-4.18,1.87-4.18,4.18v8.15c0,2.31,1.87,4.18,4.18,4.18h2.8v-5.9h-2.07v-2.36h2.07v-1.8c0-2.04,1.22-3.17,3.08-3.17.89,0,1.83.16,1.83.16v2.01h-1.03c-1.01,0-1.33.63-1.33,1.27v1.53h2.26l-.36,2.36h-1.9v5.9h0s2.8,0,2.8,0c2.31,0,4.18-1.87,4.18-4.18V5.07c0-2.31-1.87-4.18-4.18-4.18Z"/>
    </g>
  </g>
</svg>