<?xml version="1.0" encoding="UTF-8"?>
<svg id="_레이어_2" data-name="레이어 2" xmlns="http://www.w3.org/2000/svg" viewBox="0 0 27.69 27.69">
  <defs>
    <style>
      .cls-1 {
        fill: #000;
        stroke-width: 0px;
      }
    </style>
  </defs>
  <g id="Layer_1" data-name="Layer 1">
    <g id="_6Yss5j.tif" data-name="6Yss5j.tif">
      <g>
        <path class="cls-1" d="M12.37,12.37c3.88-3.88,7.76-7.77,11.65-11.65.96-.96,2.3-.97,3.14-.02.71.8.71,1.97-.02,2.8-.1.11-.2.21-.31.31-7.67,7.67-15.34,15.35-23.02,23.02-.17.17-.35.34-.55.48-.9.61-2.05.47-2.74-.32-.71-.81-.7-1.98.03-2.8.11-.12.23-.23.34-.35,3.82-3.82,7.65-7.65,11.47-11.47Z"/>
        <path class="cls-1" d="M15.32,12.37c3.88,3.88,7.77,7.76,11.65,11.65.96.96.97,2.3.02,3.14-.8.71-1.97.71-2.8-.02-.11-.1-.21-.2-.31-.31C16.2,19.16,8.53,11.49.86,3.81c-.17-.17-.34-.35-.48-.55C-.23,2.37-.09,1.22.7.53c.81-.71,1.98-.7,2.8.03.12.11.23.23.35.34,3.82,3.82,7.65,7.65,11.47,11.47Z"/>
      </g>
    </g>
  </g>
</svg>